<svg viewBox="0 0 202 147" xmlns="http://www.w3.org/2000/svg" xmlns:xlink="http://www.w3.org/1999/xlink" width="202.000000" height="147.000000" fill="none" customFrame="#000000">
	<rect id="logo" width="202.000000" height="147.000000" x="0.000000" y="0.000000" />
	<rect id="Rectangle 142" width="147.000000" height="147.000000" x="0.000000" y="0.000000" fill="rgb(31,30,30)" />
	<path id="LENNI" d="M39.9645 72.7026L26.6388 72.7026L26.6388 50.2971L26.5985 50.2971L26.5985 50.2649L21.9176 50.2649L21.9176 73.2666L39.9645 73.2666L39.9645 72.7026ZM43.9286 73.2666L62.0399 73.2666L62.0399 72.7026L48.6095 72.7026L48.6095 61.5522L59.1073 61.5522L59.1073 60.9561L48.6095 60.9561L48.6095 50.8289L62.0399 50.8289L62.0399 50.2649L43.9286 50.2649L43.9286 73.2666ZM70.6865 73.2666L70.6865 50.8289C73.5627 50.8289 82.4089 51.9165 83.0615 64.7185L83.0615 73.2666L87.7505 73.2666L87.7505 50.2649L83.0615 50.2649L83.0615 60.5935C81.6436 54.4543 77.156 50.2649 70.6865 50.2649L66.0056 50.2649L66.0056 73.2666L70.6865 73.2666ZM97.3835 73.2666L97.3835 50.8289C100.26 50.8289 109.106 51.9165 109.759 64.7185L109.759 73.2666L114.447 73.2666L114.447 50.2649L109.759 50.2649L109.759 60.5935C108.341 54.4543 103.853 50.2649 97.3835 50.2649L92.7026 50.2649L92.7026 73.2666L97.3835 73.2666ZM119.4 73.2666L124.081 73.2666L124.081 50.2649L119.4 50.2649L119.4 73.2666Z" fill="rgb(255,255,255)" fill-rule="nonzero" />
	<rect id="Rectangle 143" width="121.000000" height="42.000000" x="81.000000" y="92.000000" fill="rgb(188.062,51.332,36.0453)" />
	<path id="ART" d="M108.906 123.515L109.448 123.515L112.385 114.967L120.932 114.967L124.265 123.515L128.733 123.515L120.632 102.604L116.106 102.604L108.906 123.515ZM116.406 103.263L120.756 114.455L112.568 114.455L116.406 103.263ZM132.636 102.604L132.636 123.515L136.892 123.515L136.892 116.286L141.968 116.286L146.853 123.485L151.716 123.485L146.552 115.832C149.555 115.055 151.833 113.195 151.833 109.027C151.833 103.805 148.025 102.157 143.586 102.157C138.906 102.157 137.558 105.666 136.892 109.562L136.892 102.604L132.636 102.604ZM138.064 106.984C138.877 104.047 140.971 102.846 142.832 102.692C147.307 102.274 147.483 105.124 147.483 109.027C147.483 115.355 144.128 115.773 141.242 115.773L136.892 115.773C136.892 115.773 136.775 111.635 138.064 106.984ZM162.098 103.117L162.128 123.515L166.383 123.515L166.383 103.117L174.996 103.117L174.996 102.604L153.485 102.604L153.485 103.117L162.098 103.117Z" fill="rgb(255,255,255)" fill-rule="nonzero" />
</svg>
