<svg viewBox="0 0 80 35.2446" xmlns="http://www.w3.org/2000/svg" fill="none" customFrame="#000000">
		<path id="Dignity" d="M57.6358 8.42804L57.6358 5.74036L59.8258 5.74036L59.8258 0L62.6462 0L62.6462 5.74036L64.7698 5.74036L64.7698 8.46122L62.6462 8.46122L62.6462 17.9842C62.6462 19.5548 63.2877 20.4286 64.5707 20.6056C64.814 20.6498 65.0574 20.6719 65.3007 20.6719L65.7653 20.6719L66.3957 23.4923L65.2012 23.4923C62.4803 23.4702 60.8102 22.4526 60.1908 20.4397C59.9696 19.6875 59.859 18.7585 59.859 17.6524L59.8258 8.42804L57.6358 8.42804ZM0 23.4923L0 0.26545L2.88677 0.26545L2.88677 23.4923L0 23.4923ZM4.54583 23.4923L4.54583 20.6387C6.80216 20.6387 8.31744 20.2848 9.09166 19.5769C9.75529 18.9576 10.0871 18.0838 10.0871 16.9556L10.0871 6.80216Q10.0871 5.61105 9.52945 4.80644Q8.72004 3.63857 6.7358 3.28494Q5.80672 3.11904 4.54583 3.11904L4.54583 0.26545Q9.5299 0.26545 11.6077 2.72281L11.6077 2.72283Q11.9921 3.1775 12.2771 3.7163C12.7637 4.60113 13.0071 5.62975 13.0071 6.80216L13.0071 16.9556C13.0071 21.1143 10.4742 23.2932 5.40854 23.4923L4.54583 23.4923ZM15.8275 3.08586C15.8275 2.40011 16.1482 1.91345 16.7897 1.62588Q17.1215 1.49316 17.4533 1.49316C18.117 1.49316 18.6036 1.80285 18.9133 2.42223Q19.046 2.75404 19.046 3.08586C19.046 3.74948 18.7363 4.23614 18.117 4.54583C17.8958 4.63432 17.6745 4.67856 17.4533 4.67856C16.7676 4.67856 16.2699 4.36887 15.9602 3.74948C15.8717 3.52827 15.8275 3.30707 15.8275 3.08586ZM52.3268 3.08586C52.3268 2.40011 52.6476 1.91345 53.2891 1.62588C53.5103 1.5374 53.7315 1.49316 53.9527 1.49316C54.6163 1.49316 55.103 1.80285 55.4127 2.42223C55.5012 2.64344 55.5454 2.86465 55.5454 3.08586C55.5454 3.74948 55.2357 4.23614 54.6163 4.54583C54.3951 4.63432 54.1739 4.67856 53.9527 4.67856C53.267 4.67856 52.7693 4.36887 52.4596 3.74948C52.3711 3.52827 52.3268 3.30707 52.3268 3.08586ZM21.4019 29.6309L22.0987 27.0427L28.3368 27.0427C29.5756 26.9985 30.4825 26.5118 31.0577 25.5827C31.2346 25.2731 31.3231 24.9965 31.3231 24.7532L31.3231 22.3642C30.4162 23.0057 29.5092 23.3485 28.6022 23.3928L28.6022 20.8378C29.5756 20.8378 30.3498 20.4286 30.9249 19.6101C31.1904 19.2341 31.3231 18.858 31.3231 18.482L31.3231 10.3526C31.3231 9.51196 30.8586 8.84834 29.9295 8.36168C29.4871 8.14047 29.0447 8.02986 28.6022 8.02986L28.6022 5.40854Q29.4189 5.40854 30.1264 5.68649L30.1265 5.68651Q30.7125 5.91673 31.2236 6.33762C31.2678 6.35974 31.301 6.38186 31.3231 6.40398L31.3231 5.40854L34.0108 5.40854L34.0108 24.7532C34.0108 25.7044 33.5794 26.6888 32.7167 27.7063C31.6328 28.9672 30.2945 29.6087 28.7018 29.6309L21.4019 29.6309ZM21.7337 18.5151L21.7337 10.2198Q21.7348 10.1682 21.7374 10.1167L21.7375 10.1149Q21.8127 8.61004 23.1273 7.16715C24.2113 6.01687 25.5496 5.43067 27.1423 5.40854L27.1423 8.02986C26.0583 8.02986 25.2399 8.4944 24.6869 9.42348C24.4878 9.75529 24.3882 10.0539 24.3882 10.3194L24.3882 18.482C24.3882 19.1456 24.7311 19.7318 25.4168 20.2406Q25.7253 20.4551 26.0662 20.583Q26.5689 20.7715 27.1423 20.7715L27.1423 23.3928C25.1072 23.3707 23.5587 22.508 22.4969 20.8046C21.9881 19.9862 21.7337 19.223 21.7337 18.5151ZM36.5657 23.4923L36.5657 10.3857C36.5657 9.32393 37.0413 8.28425 37.9925 7.26669Q38.7827 6.46164 39.7403 6.01829Q40.914 5.47491 42.3393 5.47491L42.3393 8.22895Q41.3874 8.22895 40.6875 8.64891Q40.1431 8.97555 39.7511 9.5562C39.5078 9.93226 39.3862 10.3194 39.3862 10.7175L39.3862 23.4923L36.5657 23.4923ZM43.7993 8.22895L43.7993 5.47491C45.8565 5.47491 47.4603 6.30444 48.6105 7.9635C49.2299 8.82621 49.5396 9.63362 49.5396 10.3857L49.5396 23.4923L46.7192 23.4923L46.7192 10.7175C46.7192 10.0318 46.3763 9.42348 45.6906 8.89258C45.1376 8.45016 44.5071 8.22895 43.7993 8.22895ZM66.7275 5.54127L69.6806 5.54127L74.7242 19.5769L71.3065 29.7968L68.4861 29.7968L71.7379 19.5438L66.7275 5.54127ZM74.0606 13.2393L77.0801 5.54127L80 5.54127L75.5869 17.1215L75.2883 17.1215L74.0606 13.2393ZM16.0597 23.4923L16.0597 6.00581L18.847 6.00581L18.847 23.4923L16.0597 23.4923ZM52.5591 23.4923L52.5591 6.00581L55.3463 6.00581L55.3463 23.4923L52.5591 23.4923Z" fill="rgb(17,17,17)" fill-rule="evenodd" />
		<path id="Codes" d="M52.4077 24.9087L52.3932 35.1721L53.6561 35.1721L53.6561 24.9087L52.4077 24.9087ZM62.613 27.5798C61.8097 28.0056 61.4081 28.6589 61.4081 29.5396C61.4081 29.7331 61.4274 29.917 61.4662 30.0912C61.621 30.6815 62.0662 31.1219 62.8017 31.4122C63.0049 31.48 63.334 31.5671 63.7888 31.6735C64.2147 31.78 64.5244 31.8622 64.7179 31.9203C65.4825 32.1526 65.8647 32.4623 65.8647 32.8494C65.8647 33.1494 65.7583 33.4107 65.5454 33.6333C65.2454 33.943 64.8728 34.0978 64.4276 34.0978L64.4276 35.2447C64.9889 35.2447 65.4873 35.114 65.9228 34.8527C66.668 34.4075 67.0406 33.7204 67.0406 32.7913C67.0406 32.4526 66.968 32.1477 66.8229 31.8768C66.5422 31.3638 66.0728 31.0396 65.4147 30.9041C64.3598 30.6525 63.6485 30.4493 63.2808 30.2944C62.7969 30.1009 62.5549 29.8492 62.5549 29.5396Q62.5549 29.4655 62.566 29.3932Q62.6007 29.1677 62.7436 28.9589C62.9856 28.5911 63.3291 28.4072 63.7743 28.4072L63.7743 27.2749C63.3872 27.2749 63.0001 27.3765 62.613 27.5798ZM64.4131 27.2749L64.4131 28.4218C64.5582 28.4218 64.7179 28.4556 64.8921 28.5234Q65.426 28.7191 65.6326 29.0948Q65.7631 29.3321 65.7631 29.6412L66.91 29.4524C66.91 29.0169 66.7503 28.6008 66.4309 28.204C65.918 27.5846 65.2454 27.2749 64.4131 27.2749ZM35.9021 34.4317C35.5053 34.0059 35.3069 33.5365 35.3069 33.0236L35.3069 29.467Q35.3069 28.9444 35.6553 28.4072Q35.9471 27.9512 36.3612 27.6862L36.3612 27.6862L36.3612 27.6862Q36.9358 27.3185 37.7457 27.3185L37.7457 28.4798Q37.465 28.4798 37.2231 28.5766L37.2231 28.5766Q37.1021 28.625 36.9908 28.6976Q36.6297 28.9493 36.5408 29.2752L36.5408 29.2752Q36.5118 29.3817 36.5118 29.496L36.5118 33.0236C36.5118 33.1591 36.5505 33.2946 36.6279 33.4301Q36.7436 33.6312 36.9132 33.7626Q37.2333 34.0107 37.7457 34.0107L37.7457 35.1721Q36.9572 35.1721 36.3815 34.8221Q36.1198 34.663 35.9021 34.4317ZM39.0514 28.68Q38.7915 28.4943 38.399 28.4943L38.399 27.3185Q38.7689 27.3185 39.104 27.4266Q39.4527 27.539 39.7635 27.7685Q40.238 28.1322 40.454 28.6123L40.454 28.6123L40.454 28.6123L40.454 28.6123Q40.6345 29.0135 40.6345 29.496L39.5022 29.9315L39.5022 29.5831C39.4926 29.4186 39.4538 29.2589 39.3861 29.104Q39.2625 28.8308 39.0514 28.68ZM41.7233 33.0236L41.7233 29.4379Q41.7233 29.4017 41.725 29.3655Q41.7557 28.7209 42.333 28.1024Q42.6617 27.7611 43.0619 27.5684L43.0619 27.5684L43.062 27.5683Q43.5809 27.3185 44.2202 27.3185L44.2202 28.4943C43.6492 28.4943 43.2524 28.7314 43.0298 29.2057C42.9621 29.3508 42.9282 29.496 42.9282 29.6412L42.9282 32.8349Q42.9282 33.0061 42.9783 33.161Q43.0855 33.4923 43.4218 33.7494C43.654 33.9236 43.9202 34.0107 44.2202 34.0107L44.2202 35.1866Q43.4959 35.1866 42.9438 34.8783Q42.4446 34.5995 42.0862 34.0688C41.8443 33.701 41.7233 33.3526 41.7233 33.0236ZM44.8444 35.1866L44.8444 34.0107Q45.2262 34.0107 45.5008 33.8391Q45.7795 33.6649 45.9477 33.3139C46.0251 33.1591 46.0638 33.0091 46.0638 32.8639L46.0638 29.6412Q46.0638 29.3672 45.9562 29.1455L45.9561 29.1455Q45.8299 28.8856 45.5557 28.6976C45.3428 28.5621 45.1009 28.4943 44.8299 28.4943L44.8299 27.3185Q45.5283 27.3185 46.06 27.6162Q46.545 27.8878 46.8913 28.4072C47.1332 28.7653 47.2542 29.1089 47.2542 29.4379L47.2542 33.0236Q47.2542 33.0822 47.2501 33.1406L47.25 33.1408L47.25 33.1409L47.25 33.1412Q47.2037 33.7903 46.6445 34.4027Q46.3326 34.74 45.9482 34.9322L45.9482 34.9323Q45.4558 35.1784 44.8444 35.1866ZM54.8175 33.0236L54.8175 29.4234C54.8271 28.9782 55.0401 28.5379 55.4562 28.1024C55.9594 27.5895 56.5692 27.3282 57.2853 27.3185L57.2853 28.4653C56.8208 28.4653 56.4579 28.6685 56.1966 29.075C56.0901 29.2492 56.0369 29.4089 56.0369 29.5541L56.0369 30.5412L59.2886 30.5412L59.2886 29.5541Q59.2886 29.292 59.1812 29.086Q59.0207 28.7785 58.6209 28.596C58.4176 28.4992 58.2096 28.4508 57.9966 28.4508L57.9966 27.3185Q58.3914 27.3185 58.7524 27.429Q59.3073 27.5988 59.7822 28.0298Q60.2981 28.5228 60.4156 29.0973Q60.4469 29.2502 60.45 29.4089L60.45 31.7171L56.0369 31.7171L56.0369 33.0236C56.0369 33.2946 56.1917 33.5462 56.5014 33.7785C56.753 33.9527 57.0192 34.0398 57.2998 34.0398L57.2998 35.1721C56.4191 35.1721 55.7272 34.814 55.2239 34.0978Q54.8175 33.5317 54.8175 33.0236ZM48.2414 29.4379L48.2414 33.0236C48.2414 33.343 48.3575 33.6865 48.5898 34.0543C49.064 34.7995 49.7317 35.1721 50.5931 35.1721L51.6964 35.1721L51.6964 33.9962L50.5786 33.9962C50.3656 33.9962 50.1576 33.9285 49.9543 33.793C49.6059 33.5704 49.4317 33.3042 49.4317 32.9945L49.4317 29.5105C49.4317 29.3653 49.485 29.2105 49.5914 29.046Q49.8232 28.7161 50.1372 28.5888Q50.3344 28.5089 50.564 28.5089L51.6964 28.5089L51.6964 27.333L50.5495 27.333C49.9398 27.333 49.4075 27.5507 48.9527 27.9863C48.4881 28.4314 48.251 28.9153 48.2414 29.4379ZM39.1548 35.077Q38.7963 35.1922 38.399 35.1866L38.399 34.0107Q38.5419 34.0107 38.6793 33.9832L38.6794 33.9832Q38.7653 33.966 38.849 33.9381Q39.1916 33.8239 39.3912 33.5885L39.3912 33.5885Q39.6229 33.3152 39.6619 32.8784L39.6764 32.8494L39.6764 32.559L40.8088 32.98Q40.8088 33.1585 40.7759 33.3307Q40.6673 33.9009 40.199 34.4027Q39.7263 34.8933 39.1549 35.0769L39.1548 35.077ZM62.4823 32.8929L61.3355 33.1107C61.3355 33.4978 61.4565 33.8704 61.6984 34.2285C62.163 34.9059 62.8646 35.2447 63.8034 35.2447L63.8034 34.0978C63.6001 34.0881 63.3872 34.0301 63.1646 33.9236C62.7098 33.672 62.4823 33.3284 62.4823 32.8929ZM57.9966 35.1721L57.9966 34.0252C58.5773 34.0252 59.0128 33.7736 59.3032 33.2704Q59.3903 33.1107 59.4338 32.9655L60.4645 33.343C60.2903 34.0107 59.8935 34.514 59.2741 34.8527C58.8773 35.0656 58.4515 35.1721 57.9966 35.1721Z" fill="rgb(17,17,17)" fill-rule="evenodd" />
</svg>
